<?xml version="1.0" standalone="no"?>
<!DOCTYPE svg PUBLIC "-//W3C//DTD SVG 20010904//EN"
 "http://www.w3.org/TR/2001/REC-SVG-20010904/DTD/svg10.dtd">
<svg version="1.0" xmlns="http://www.w3.org/2000/svg"
 width="1080.000000pt" height="2260.000000pt" viewBox="0 0 1080.000000 2260.000000"
 preserveAspectRatio="xMidYMid meet">

<g transform="translate(0.000000,2260.000000) scale(0.100000,-0.100000)"
fill="#000000" stroke="none">
<path d="M5255 15529 c-508 -87 -674 -145 -1035 -364 -143 -87 -173 -109 -278
-208 -135 -127 -232 -245 -288 -351 -32 -61 -68 -111 -108 -152 -78 -78 -71
-75 -471 -164 -183 -40 -297 -68 -395 -96 -47 -14 -156 -36 -244 -49 -230 -36
-284 -66 -307 -172 -27 -119 27 -271 129 -364 65 -59 115 -86 241 -128 149
-50 252 -64 466 -65 161 -1 226 4 430 32 132 18 312 46 400 62 88 17 233 39
321 50 89 11 200 29 247 40 l85 20 76 -35 c62 -30 90 -52 160 -126 122 -130
246 -314 352 -526 110 -219 153 -344 205 -608 44 -221 48 -282 25 -430 -23
-153 -47 -223 -94 -286 -42 -56 -51 -82 -32 -94 26 -16 160 -48 330 -80 192
-35 338 -66 523 -109 59 -13 132 -28 162 -31 35 -5 52 -11 48 -18 -4 -7 0 -8
11 -4 10 4 68 21 129 39 62 17 173 50 247 74 74 23 185 54 245 69 61 15 121
33 135 41 l25 13 -31 -5 c-28 -5 -31 -4 -31 23 0 17 -20 59 -51 106 -60 92
-87 159 -112 282 -26 131 -35 224 -35 370 1 151 15 215 77 350 23 49 66 157
96 240 122 338 165 531 166 750 1 285 -99 728 -222 985 -88 182 -176 282 -471
537 -162 139 -258 206 -411 286 -205 107 -453 141 -715 96z m304 1 c310 -33
520 -140 856 -435 192 -168 283 -265 351 -372 71 -112 95 -164 161 -358 51
-151 61 -192 103 -455 38 -233 37 -355 -4 -570 -37 -195 -132 -477 -231 -685
-56 -120 -91 -295 -81 -420 25 -342 58 -472 157 -618 75 -111 72 -116 -86
-157 -66 -16 -158 -43 -205 -59 -47 -16 -143 -46 -215 -66 l-130 -36 -120 21
c-66 11 -163 31 -215 44 -121 30 -257 58 -440 91 -175 31 -300 64 -307 81 -2
7 18 42 46 79 32 42 51 76 51 93 0 15 5 43 10 62 16 52 40 227 40 290 0 67
-59 378 -99 521 -54 190 -178 446 -312 642 -84 123 -223 297 -238 297 -3 0
-21 14 -39 31 -18 16 -52 39 -77 50 -25 11 -45 21 -45 23 0 2 34 11 75 21 84
19 122 43 112 68 -12 32 -110 85 -197 107 -160 40 -275 82 -435 162 -88 44
-171 88 -185 98 -14 10 -68 39 -120 65 -122 61 -199 113 -244 166 -43 51 -60
46 -20 -6 35 -46 141 -118 264 -180 52 -26 106 -55 120 -65 43 -30 306 -159
377 -186 38 -13 77 -28 88 -33 11 -4 69 -20 129 -34 108 -26 206 -74 206 -101
0 -20 -40 -33 -193 -65 -78 -16 -149 -32 -157 -35 -8 -3 -103 -17 -210 -31
-107 -14 -238 -34 -290 -45 -52 -11 -180 -32 -285 -45 -104 -13 -244 -32 -310
-41 -157 -21 -448 -14 -575 15 -188 43 -343 119 -410 202 -67 84 -101 202 -86
303 15 98 78 132 309 166 81 12 191 34 245 50 53 16 192 49 307 75 116 26 254
57 308 71 54 13 107 24 117 24 11 0 20 3 20 8 0 4 19 16 41 27 50 24 130 117
174 204 47 95 106 169 246 312 134 135 193 179 437 319 271 155 458 216 872
284 149 24 198 31 230 34 8 1 57 -3 109 -8z"/>
<path d="M4039 13484 c-66 -146 -122 -259 -162 -328 l-45 -77 -159 -3 c-88 -2
-176 -9 -198 -16 -29 -9 -69 -41 -150 -124 -61 -61 -118 -116 -127 -123 -12
-9 -34 -9 -89 -1 -74 10 -830 5 -848 -6 -5 -3 -132 -10 -282 -16 -151 -6 -294
-15 -319 -19 -67 -13 332 -2 550 14 200 16 835 22 913 10 36 -5 56 -3 85 10
37 18 146 121 178 170 33 51 89 73 214 84 68 6 139 7 172 3 48 -7 60 -6 71 7
34 40 166 291 206 391 15 37 17 8 33 -442 4 -118 17 -138 87 -138 54 0 86 -19
137 -79 l37 -42 -34 5 c-19 3 -69 8 -111 11 -73 6 -78 6 -78 -13 0 -20 85
-104 124 -123 12 -5 -7 16 -42 48 -34 32 -62 62 -62 67 0 7 96 2 183 -10 52
-8 49 14 -10 77 -58 63 -73 70 -136 73 -64 4 -74 18 -75 104 -2 168 -23 517
-31 525 -6 6 -18 -8 -32 -39z"/>
<path d="M1200 12817 c-158 -57 -164 -73 -57 -168 76 -68 159 -129 176 -129
28 0 17 -22 -20 -41 -50 -25 -145 -112 -165 -151 -22 -42 -17 -102 14 -171 33
-71 70 -118 124 -157 l38 -28 -39 -25 c-65 -43 -108 -85 -166 -162 -62 -83
-68 -110 -27 -126 28 -11 77 -7 302 25 58 9 122 16 142 16 20 0 40 5 43 11 4
6 8 80 10 164 2 85 6 158 9 163 3 5 6 58 7 118 1 88 24 464 29 484 1 3 12 -40
25 -95 29 -120 44 -259 50 -471 6 -182 13 -250 25 -238 13 13 -6 452 -25 575
-16 107 -34 189 -55 243 -9 26 -13 28 -25 15 -11 -11 -17 -62 -25 -199 -6
-102 -15 -257 -20 -345 -6 -88 -10 -199 -10 -245 0 -47 -3 -101 -6 -122 l-6
-36 -72 -7 c-39 -4 -120 -15 -181 -26 -125 -21 -206 -24 -222 -8 -22 22 74
143 186 235 35 29 69 50 77 47 30 -11 12 18 -18 30 -72 30 -151 135 -178 235
-10 38 -9 49 11 88 23 49 81 102 161 149 59 35 68 50 36 61 -75 23 -277 196
-258 219 16 19 100 53 175 70 55 13 81 14 148 5 45 -6 104 -18 130 -27 69 -22
69 -9 0 17 -42 16 -87 23 -168 26 -97 4 -118 1 -175 -19z"/>
<path d="M4365 12720 c-3 -11 -4 -24 0 -30 3 -5 6 -42 7 -81 0 -51 4 -72 14
-76 8 -3 38 13 67 36 28 23 85 65 125 93 68 48 91 74 42 48 -26 -14 -128 -5
-179 16 -46 19 -69 18 -76 -6z m69 -37 c-4 -13 -1 -37 6 -54 11 -27 10 -32
-10 -54 -13 -14 -27 -25 -30 -25 -8 0 -20 160 -13 172 2 4 15 2 28 -4 19 -9
23 -16 19 -35z m125 1 c9 -3 1 -12 -20 -27 -61 -41 -62 -41 -55 -19 4 11 2 23
-4 27 -5 3 -10 -1 -10 -9 0 -9 -4 -16 -10 -16 -11 0 -14 43 -4 52 5 6 77 0
103 -8z"/>
<path d="M2144 12556 c-45 -45 -44 -81 5 -199 48 -117 118 -374 123 -452 l3
-60 -160 -8 c-88 -4 -206 -7 -262 -8 -64 0 -105 -4 -109 -11 -5 -8 55 -9 222
-3 126 5 249 9 274 9 l45 1 5 -97 c3 -53 9 -100 13 -105 11 -10 2 199 -12 297
-6 41 -22 113 -35 160 -14 47 -32 112 -41 144 -9 33 -32 97 -51 142 -44 107
-44 147 -2 191 18 18 28 33 24 33 -4 0 -23 -15 -42 -34z"/>
<path d="M2255 12574 c47 -17 76 -43 118 -104 17 -25 57 -76 90 -115 73 -86
104 -146 113 -216 4 -30 13 -72 21 -94 25 -72 92 -174 132 -200 37 -25 69 -69
170 -234 l52 -84 0 -186 c1 -102 2 -217 4 -256 1 -38 8 -223 15 -409 6 -187
16 -350 21 -363 5 -14 7 -29 4 -33 -3 -5 3 -67 15 -137 11 -70 33 -258 50
-418 17 -159 42 -339 55 -400 13 -60 34 -153 45 -205 12 -52 38 -149 60 -215
21 -66 55 -173 75 -238 20 -64 55 -157 79 -205 23 -48 53 -131 66 -184 l23
-97 -25 -58 c-58 -130 -72 -223 -40 -263 24 -30 55 -20 91 30 32 44 32 79 6
218 l-15 73 47 67 c25 37 64 90 85 119 41 54 339 333 356 333 5 0 15 7 22 15
24 29 150 10 245 -38 58 -28 248 -142 320 -190 58 -39 267 -224 445 -394 75
-71 100 -86 100 -60 0 36 -39 137 -106 274 -64 132 -84 161 -150 232 -84 89
-163 146 -301 215 -143 71 -244 97 -398 103 -71 3 -133 8 -137 12 -3 3 18 49
49 101 30 52 87 151 125 220 80 142 108 183 297 436 75 100 172 230 216 289
44 60 116 149 160 199 74 83 261 299 459 529 153 179 331 357 355 357 35 0
242 -213 334 -343 42 -60 77 -111 77 -114 0 -3 21 -28 46 -56 90 -100 245
-389 283 -527 65 -232 79 -391 57 -629 -16 -174 -28 -235 -66 -345 -24 -71
-18 -87 9 -25 57 130 99 477 81 665 -12 121 -42 272 -77 377 -48 150 -174 370
-321 563 -42 56 -97 130 -122 164 -25 35 -93 112 -153 172 -59 60 -105 113
-102 119 25 39 274 175 395 215 47 15 78 30 69 31 -22 5 -183 -51 -217 -75
-15 -11 -49 -29 -76 -41 -27 -11 -82 -44 -122 -71 -40 -28 -78 -50 -83 -50 -5
0 -30 18 -56 40 -25 22 -66 52 -91 66 -44 26 -47 26 -167 19 -121 -7 -212 -28
-263 -61 -16 -11 -58 -17 -141 -21 -139 -5 -156 1 -216 89 -33 47 -41 71 -60
173 -20 109 -25 122 -56 152 -18 18 -46 38 -62 45 -39 17 -57 88 -22 88 27 0
123 42 123 54 0 12 -153 67 -183 66 -17 0 -19 8 -17 68 3 102 2 105 -37 131
-32 21 -43 23 -92 16 -108 -14 -113 -13 -138 24 -20 29 -23 47 -23 118 0 124
27 318 56 401 33 96 26 116 -10 26 -20 -48 -34 -113 -47 -214 -24 -188 -24
-273 0 -327 26 -55 51 -68 106 -54 68 17 118 14 143 -9 18 -17 22 -33 24 -88
0 -37 1 -75 0 -84 -2 -18 8 -22 71 -33 34 -5 37 -9 37 -39 0 -26 -6 -35 -26
-45 -24 -10 -25 -15 -19 -49 8 -44 12 -52 28 -52 7 0 34 -19 59 -42 46 -42 48
-46 63 -133 9 -49 23 -111 31 -137 17 -52 81 -131 125 -153 58 -31 251 -12
349 34 56 26 81 31 180 37 108 6 119 5 160 -16 37 -19 91 -55 133 -90 4 -3
-48 -62 -116 -131 -68 -68 -155 -161 -193 -205 -103 -121 -364 -423 -480 -555
-56 -64 -135 -161 -175 -215 -40 -55 -143 -193 -229 -309 -192 -258 -200 -269
-290 -429 -39 -71 -96 -169 -126 -217 -56 -90 -61 -119 -20 -119 225 -4 369
-36 529 -116 231 -117 329 -214 438 -439 60 -124 103 -234 94 -243 -3 -3 -44
32 -93 79 -167 161 -363 334 -428 377 -147 98 -323 194 -397 217 -86 28 -112
30 -153 14 -79 -29 -402 -341 -474 -456 -25 -39 -48 -72 -51 -72 -3 -1 -16 41
-28 92 -12 50 -39 126 -60 167 -21 41 -58 136 -81 210 -23 74 -57 180 -76 235
-18 55 -42 141 -53 190 -11 50 -29 133 -41 185 -12 52 -39 248 -60 435 -22
187 -46 381 -54 430 -22 134 -36 304 -36 450 0 72 -5 209 -11 305 -6 96 -11
277 -13 401 l-1 226 -55 89 c-29 49 -71 114 -91 144 -21 30 -35 58 -31 61 12
11 209 29 320 29 59 0 114 5 122 10 10 7 -39 9 -157 5 -158 -5 -279 -17 -291
-29 -9 -9 -59 23 -85 54 -43 50 -87 152 -101 231 -15 86 -38 133 -100 209 -25
30 -71 90 -101 132 -60 83 -106 118 -151 117 -27 0 -27 -1 11 -15z m2370 -894
c19 -7 18 -9 -8 -19 -37 -14 -37 -14 -37 9 0 21 12 24 45 10z m-1138 -3670 l5
-95 -30 -29 c-20 -19 -37 -26 -48 -22 -25 10 -14 122 22 214 25 64 29 70 37
50 5 -13 12 -66 14 -118z"/>
<path d="M3280 12368 c0 -62 -3 -205 -6 -318 -5 -150 -4 -202 5 -195 7 7 11
105 13 303 2 160 5 292 8 292 3 0 19 -26 35 -57 27 -54 30 -67 32 -186 1 -71
10 -184 18 -250 9 -67 19 -148 22 -180 4 -39 11 -61 23 -67 22 -12 145 -40
176 -40 13 0 51 -9 85 -21 33 -12 62 -19 65 -16 9 8 -90 45 -141 52 -75 11
-167 33 -176 42 -14 14 -50 316 -56 473 -5 141 -6 147 -40 213 -52 99 -63 91
-63 -45z"/>
<path d="M6775 11970 c24 -43 210 -272 252 -311 27 -25 84 -63 126 -84 68 -33
88 -39 160 -41 l82 -3 -81 13 c-166 27 -253 86 -402 274 -100 126 -161 193
-137 152z"/>
<path d="M4352 11881 c-14 -34 -33 -57 -63 -78 -87 -60 -99 -63 -216 -60 -121
2 -159 -10 -238 -80 -46 -40 -20 -30 64 26 l54 36 121 0 c106 1 126 4 164 23
67 35 119 88 136 137 20 61 4 57 -22 -4z"/>
<path d="M2010 11749 c-129 -24 -244 -39 -299 -39 -70 0 -121 -21 -121 -49 0
-41 160 -186 242 -219 l37 -15 -24 -29 c-49 -58 -28 -129 53 -188 36 -26 42
-35 35 -53 -21 -60 5 -114 77 -159 43 -27 45 -31 45 -76 1 -64 35 -112 132
-186 82 -62 155 -143 178 -200 12 -28 12 -49 2 -127 -15 -120 -15 -308 1 -684
7 -165 17 -435 22 -600 6 -165 15 -371 20 -457 6 -87 10 -253 11 -370 0 -188
4 -234 30 -388 16 -96 29 -195 29 -220 0 -127 40 -342 100 -540 16 -52 38
-136 49 -187 23 -107 57 -178 114 -240 52 -57 106 -82 174 -83 48 0 82 5 275
45 57 12 290 93 478 167 89 35 370 177 435 221 33 22 89 63 125 91 36 29 115
87 175 130 61 43 155 122 210 176 113 111 478 396 665 520 124 82 224 166 214
181 -2 5 62 59 143 121 81 62 180 143 218 179 101 95 307 265 401 331 121 86
125 102 4 21 -111 -75 -266 -200 -415 -337 -49 -45 -144 -123 -210 -173 -66
-50 -178 -141 -250 -203 -71 -62 -151 -126 -176 -144 -138 -94 -478 -365 -574
-457 -60 -59 -168 -149 -240 -201 -71 -52 -173 -127 -225 -167 -116 -88 -450
-257 -645 -327 -71 -25 -168 -60 -214 -76 -92 -33 -256 -66 -367 -75 -89 -7
-145 15 -196 78 -52 64 -75 113 -98 214 -12 50 -41 158 -65 241 -48 167 -71
283 -80 419 -6 88 -35 297 -55 404 -5 29 -10 149 -10 265 0 116 -4 274 -10
351 -16 251 -20 343 -38 850 -19 566 -21 789 -8 955 5 63 5 112 1 108 -4 -4
-23 18 -42 50 -44 74 -53 83 -141 149 -92 69 -132 122 -132 175 0 35 2 39 21
33 18 -6 19 -5 8 14 -8 11 -15 18 -17 16 -9 -9 -81 36 -110 70 -33 37 -39 63
-22 95 14 26 6 40 -46 79 -47 34 -79 89 -70 119 3 9 17 30 31 46 14 16 24 34
22 40 -2 5 -20 15 -42 23 -67 23 -235 165 -235 199 0 20 42 34 104 34 29 0 77
4 106 10 93 18 253 40 284 40 22 0 48 -15 91 -50 55 -46 75 -58 75 -45 0 2
-30 29 -67 60 -72 60 -90 64 -193 44z m3475 -3588 c-3 -5 -24 -24 -48 -41
l-42 -32 44 41 c42 40 58 51 46 32z"/>
<path d="M7413 11524 c14 -22 43 -76 65 -120 22 -43 86 -155 142 -249 148
-246 259 -481 335 -707 87 -257 110 -379 160 -858 14 -135 28 -270 31 -301 4
-34 2 -71 -6 -93 -14 -43 -7 -58 11 -24 17 31 24 164 11 191 -6 12 -16 78 -22
147 -17 188 -58 511 -81 635 -11 61 -47 189 -78 285 -86 259 -181 460 -355
748 -45 75 -106 183 -136 239 -29 56 -64 113 -78 125 l-25 23 26 -41z"/>
<path d="M6340 11132 c0 -5 37 -14 83 -20 220 -32 264 -48 466 -163 132 -76
169 -101 264 -183 112 -96 156 -163 257 -391 137 -309 410 -861 473 -959 51
-78 208 -246 230 -246 5 0 -35 46 -89 103 -106 111 -143 167 -262 402 -94 186
-277 571 -342 720 -62 142 -95 209 -115 233 -110 132 -218 225 -350 303 -223
131 -301 162 -481 193 -102 18 -134 20 -134 8z"/>
<path d="M6370 11082 c6 -13 93 -105 192 -205 276 -278 480 -524 604 -729 59
-98 192 -364 250 -500 56 -134 89 -278 144 -638 35 -225 92 -437 185 -690 48
-129 105 -286 126 -349 57 -162 100 -242 188 -348 35 -43 91 -73 137 -73 40 0
84 23 155 81 36 30 104 85 150 123 46 37 128 111 182 163 126 123 127 142 10
222 -53 36 -159 182 -290 399 -141 233 -153 255 -200 367 -26 61 -33 71 -28
41 10 -60 71 -183 193 -386 163 -273 258 -399 348 -461 30 -20 44 -37 44 -52
0 -43 -356 -374 -490 -456 -79 -47 -152 -19 -235 91 -66 87 -98 155 -170 358
-34 96 -93 258 -130 360 -76 211 -126 419 -175 730 -53 335 -81 427 -216 714
-146 307 -242 457 -464 718 -117 137 -528 556 -510 520z"/>
<path d="M8227 9069 c66 -8 108 -26 136 -56 9 -11 65 -114 123 -229 58 -115
125 -245 149 -289 24 -44 71 -143 105 -220 34 -77 68 -147 75 -155 7 -8 21
-44 30 -80 21 -80 35 -107 75 -145 29 -28 36 -30 103 -29 40 0 126 4 192 9
l120 8 75 -61 c114 -92 370 -358 492 -512 19 -25 71 -99 115 -165 77 -117 80
-123 101 -230 37 -183 31 -226 -64 -520 -67 -205 -137 -355 -234 -500 -15 -22
-53 -89 -85 -150 -31 -60 -59 -113 -62 -117 -2 -4 -16 1 -31 11 -45 31 -290
165 -403 221 -163 80 -238 135 -273 200 -16 30 -66 114 -111 185 -45 72 -105
173 -135 225 -29 52 -79 133 -110 180 -60 91 -315 516 -326 544 -3 9 -10 16
-15 16 -5 0 2 -23 17 -51 35 -70 236 -407 294 -494 26 -38 81 -128 123 -200
41 -71 111 -187 154 -257 43 -70 90 -147 105 -172 36 -60 94 -101 283 -198 88
-45 183 -95 210 -111 125 -74 207 -116 218 -111 7 2 43 60 80 127 37 67 87
154 111 192 132 215 263 561 288 759 11 88 10 104 -11 203 -29 138 -34 150
-141 304 -153 221 -470 560 -620 664 -40 28 -49 30 -129 29 -47 0 -131 -4
-186 -8 -94 -8 -102 -7 -128 14 -34 27 -59 75 -82 163 -9 37 -27 82 -39 100
-12 18 -43 82 -70 142 -27 61 -65 142 -86 180 -21 39 -87 167 -147 285 -60
118 -118 228 -128 243 -29 44 -84 67 -157 66 l-63 -2 62 -8z"/>
<path d="M7799 7321 c-112 -94 -264 -258 -361 -388 -118 -159 -430 -657 -595
-948 -84 -148 -80 -145 -148 -129 -37 8 -25 -7 16 -21 16 -5 30 -13 31 -17 6
-14 -175 -308 -191 -309 -10 0 -12 -2 -3 -6 8 -3 -4 -36 -42 -106 -30 -56 -75
-160 -101 -232 -25 -71 -60 -165 -78 -208 -27 -68 -34 -77 -52 -72 -34 10
-245 25 -357 25 -206 0 -686 -80 -968 -162 -155 -44 -549 -192 -669 -250 -112
-55 -232 -131 -270 -172 -14 -14 -28 -26 -33 -26 -4 0 -8 38 -8 84 l0 85 66
55 c124 106 238 173 464 273 196 88 373 146 582 193 100 22 230 54 288 70 132
37 270 64 429 86 106 14 152 15 310 6 102 -5 195 -13 206 -16 11 -3 6 0 -12 9
-49 23 -330 39 -445 26 -170 -21 -336 -52 -480 -91 -79 -21 -216 -54 -305 -74
-406 -91 -849 -289 -1050 -471 l-53 -47 0 134 c0 74 -3 215 -6 314 l-7 179
179 91 c149 76 222 105 439 177 494 163 617 186 1070 194 342 6 491 -4 753
-48 139 -24 173 -21 55 5 -288 61 -561 74 -1091 51 -188 -8 -395 -55 -753
-171 -262 -85 -435 -158 -584 -248 -43 -26 -61 -32 -67 -23 -4 7 -8 65 -8 129
l0 118 98 46 c239 112 436 195 530 223 114 34 468 115 702 160 443 86 914 112
1200 66 129 -20 156 -17 45 6 -171 35 -328 43 -543 30 -108 -7 -272 -21 -365
-31 -251 -29 -848 -153 -1067 -222 -94 -29 -364 -145 -512 -219 -43 -22 -81
-39 -84 -39 -4 0 -4 87 0 193 11 335 10 627 -3 640 -16 16 -25 0 -55 -98 -57
-184 -104 -450 -121 -685 -9 -124 -25 -306 -36 -404 -11 -99 -26 -308 -34
-465 -8 -157 -21 -347 -30 -421 -8 -74 -20 -250 -25 -390 -6 -140 -14 -339
-20 -441 -9 -170 -3 -529 15 -839 3 -52 10 -203 15 -335 5 -132 16 -294 25
-360 20 -168 33 -336 50 -665 15 -294 28 -418 95 -869 36 -243 44 -282 54
-270 2 2 -19 153 -45 334 -62 419 -76 557 -89 835 -12 271 -25 443 -46 610
-15 127 -35 509 -55 1065 -8 226 -8 370 0 530 6 121 13 299 17 395 3 96 14
263 25 370 10 107 23 290 29 405 12 256 17 334 35 495 8 69 21 211 30 315 8
105 18 224 21 265 7 84 83 452 112 545 l19 60 8 -40 c6 -29 -8 -743 -16 -800
0 -5 5 -134 11 -285 7 -151 13 -549 14 -885 1 -407 6 -640 14 -700 6 -49 16
-181 22 -291 9 -193 27 -335 70 -582 24 -133 79 -312 96 -312 18 0 126 58 249
134 154 94 288 158 610 290 154 63 341 140 415 171 143 60 381 146 415 149 19
2 21 15 32 172 19 259 67 484 178 839 174 556 213 675 275 830 37 94 80 208
95 254 36 110 112 257 277 536 75 127 170 292 212 368 78 141 257 427 441 708
108 164 175 250 284 362 70 73 241 223 241 212 0 -15 -127 -189 -216 -295
-134 -161 -183 -239 -329 -525 -71 -137 -140 -272 -155 -300 -63 -119 -578
-1172 -631 -1292 -67 -152 -203 -488 -248 -615 -46 -134 -85 -271 -145 -523
-76 -319 -80 -356 -80 -610 0 -312 22 -404 139 -585 72 -112 250 -315 330
-376 38 -29 86 -56 248 -139 292 -150 570 -228 880 -245 249 -14 707 -13 707
1 0 8 -31 10 -107 6 -140 -6 -665 10 -768 24 -125 17 -348 76 -474 126 -103
40 -188 81 -406 195 -117 61 -363 341 -451 513 -44 85 -57 130 -75 247 -15
103 -12 372 5 503 18 141 132 608 192 790 55 164 179 479 271 685 147 329 846
1726 944 1887 44 74 153 215 226 293 58 63 185 258 177 271 -10 16 -21 9 -115
-70z m-1606 -2440 c43 -5 81 -11 84 -15 4 -4 -23 -98 -60 -209 -162 -494 -257
-816 -302 -1022 -32 -151 -46 -256 -61 -457 l-6 -88 -86 -26 c-114 -33 -273
-94 -507 -192 -104 -44 -284 -119 -400 -166 -206 -85 -375 -171 -525 -267 -81
-51 -168 -95 -173 -88 -2 2 -15 42 -30 89 -32 103 -51 189 -71 335 -8 61 -20
134 -26 164 -9 50 -22 219 -34 476 -3 55 -10 125 -16 155 -6 33 -10 188 -9
381 l2 327 71 55 c150 115 306 188 711 332 88 31 201 68 250 81 150 40 472
104 620 124 151 20 431 25 568 11z"/>
<path d="M8232 7176 c-26 -59 -36 -142 -24 -222 8 -62 21 -99 65 -183 30 -58
83 -173 117 -256 34 -82 116 -256 181 -385 112 -223 122 -240 204 -327 47 -50
113 -111 148 -136 122 -87 313 -170 495 -213 160 -39 233 -27 337 56 51 41 95
102 156 220 70 137 80 148 67 80 -5 -30 -27 -122 -49 -205 -22 -82 -58 -224
-80 -315 -52 -211 -172 -616 -248 -835 -32 -93 -77 -251 -100 -350 -82 -355
-157 -594 -253 -800 -39 -82 -95 -206 -125 -275 -30 -69 -112 -235 -183 -370
-71 -135 -160 -310 -198 -390 -99 -206 -165 -287 -287 -352 -59 -32 -44 -38
18 -7 116 59 187 147 293 368 42 86 131 262 199 391 68 129 145 285 171 345
25 61 73 166 106 235 33 69 73 158 89 198 44 111 125 390 180 624 28 120 81
307 124 432 98 290 154 481 225 761 32 127 74 291 94 365 19 74 41 173 49 220
8 47 23 104 32 128 10 24 15 45 12 48 -6 7 -47 -59 -47 -77 0 -22 -166 -326
-202 -371 -84 -106 -206 -146 -349 -114 -290 65 -515 186 -669 360 -77 88 -95
116 -194 314 -60 119 -142 296 -183 392 -41 96 -91 206 -113 245 -68 123 -86
240 -55 359 17 63 15 81 -3 42z"/>
<path d="M7875 6597 c-117 -47 -172 -82 -246 -156 -82 -82 -108 -141 -90 -201
25 -83 114 -149 228 -169 78 -15 137 -5 176 28 l31 26 -95 6 c-143 9 -244 68
-268 157 -28 102 47 187 224 253 64 24 111 53 119 76 3 7 4 13 3 13 -1 0 -38
-15 -82 -33z"/>
<path d="M7803 5770 c-63 -13 -102 -37 -168 -104 -65 -66 -85 -109 -85 -187 0
-49 30 -121 63 -157 63 -67 188 -92 272 -53 56 25 150 114 174 164 25 51 28
141 7 191 -21 51 -76 107 -131 132 -53 25 -66 27 -132 14z m103 -95 c25 -14
57 -44 71 -67 53 -80 37 -229 -30 -272 -34 -23 -113 -30 -165 -17 -53 15 -119
73 -143 126 -41 89 -10 211 61 248 49 26 146 17 206 -18z"/>
<path d="M7727 4942 c-33 -34 -137 -345 -137 -410 0 -83 61 -152 154 -173 48
-10 64 -10 120 5 64 18 185 89 194 114 2 6 -29 -4 -69 -23 -59 -28 -85 -35
-134 -35 -113 0 -195 66 -195 156 0 25 23 116 55 215 30 94 55 173 55 175 0
12 -19 1 -43 -24z"/>
<path d="M7766 4169 c-153 -38 -326 -212 -326 -328 0 -115 99 -228 217 -247
51 -8 114 10 143 41 l23 25 -67 0 c-76 0 -117 14 -168 59 -38 33 -83 123 -74
147 7 18 35 17 121 -5 69 -18 70 -18 98 1 15 11 26 25 24 31 -5 16 -103 46
-153 46 -22 1 -49 -6 -60 -14 -10 -8 -22 -15 -26 -15 -12 0 11 62 38 103 45
68 181 113 303 100 51 -5 60 -3 87 20 16 14 26 29 22 33 -12 12 -159 14 -202
3z"/>
<path d="M7935 3444 c-49 -40 -81 -54 -178 -75 -50 -11 -106 -27 -125 -36 -58
-28 -174 -143 -144 -143 5 0 24 16 43 36 46 48 70 59 169 79 102 21 160 48
226 108 52 48 60 72 9 31z"/>
<path d="M7741 3266 c-20 -21 -23 -37 -25 -108 -2 -46 -11 -112 -20 -147 -23
-86 -19 -102 17 -70 20 17 34 45 48 94 32 115 38 255 11 255 -5 0 -19 -11 -31
-24z"/>
<path d="M7625 2747 c-28 -28 -45 -52 -45 -68 -1 -13 -13 -72 -29 -131 -23
-89 -25 -105 -12 -98 24 13 58 52 65 76 4 14 18 24 39 28 18 4 43 15 56 25
l24 18 59 -63 c33 -35 68 -66 78 -69 21 -7 70 21 70 39 0 6 -25 33 -55 59 -40
35 -64 67 -90 122 -35 73 -64 105 -97 105 -10 0 -38 -19 -63 -43z m85 -107 c0
-13 -9 -22 -27 -26 -16 -3 -34 -7 -40 -10 -16 -4 -16 1 -2 68 l12 52 28 -32
c16 -18 29 -41 29 -52z"/>
<path d="M7792 2351 c-113 -39 -185 -138 -134 -184 21 -19 96 -22 172 -7 80
15 101 -21 44 -80 -20 -21 -35 -25 -113 -30 -69 -4 -96 -10 -117 -26 -54 -40
-45 -48 44 -41 103 8 139 23 208 89 118 111 106 177 -26 149 -107 -23 -165 -8
-158 40 3 21 11 26 75 39 53 11 80 22 100 43 l28 27 -35 0 c-19 -1 -59 -9 -88
-19z"/>
</g>
</svg>
